<?xml version="1.0" encoding="utf-8"?>
<!-- Generated by IcoMoon.io -->
<!DOCTYPE svg PUBLIC "-//W3C//DTD SVG 1.1//EN" "http://www.w3.org/Graphics/SVG/1.1/DTD/svg11.dtd">
<svg version="1.1" xmlns="http://www.w3.org/2000/svg" xmlns:xlink="http://www.w3.org/1999/xlink" width="24" height="32" viewBox="0 0 24 32">
<path fill="#444444" d="M17.333 2.667h-1.6c-0.533-1.6-2-2.667-3.733-2.667s-3.2 1.067-3.733 2.667h-1.6v5.333h10.667v-5.333z"></path>
<path fill="#444444" d="M22.667 4h-2.667v6.667h-16v-6.667h-2.667c-0.8 0-1.333 0.533-1.333 1.333v25.333c0 0.8 0.533 1.333 1.333 1.333h21.333c0.8 0 1.333-0.533 1.333-1.333v-25.333c0-0.8-0.533-1.333-1.333-1.333v0zM12 28h-8v-2.667h8v2.667zM20 22.667h-16v-2.667h16v2.667zM20 17.333h-16v-2.667h16v2.667z"></path>
</svg>
