<svg class="nc-icon glyph" xmlns="http://www.w3.org/2000/svg" xmlns:xlink="http://www.w3.org/1999/xlink" x="0px" y="0px" width="32px" height="32px" viewBox="0 0 32 32">
<g>
<path fill="#444444" d="M16,0c-4.4,0-8,3.6-8,8v3c0,4.4,3.6,8,8,8s8-3.6,8-8V8C24,3.6,20.4,0,16,0z"></path>
<path data-color="color-2" fill="#444444" d="M23.3,21.9c-1.2-0.4-2-1.2-2.5-2.1C19.4,20.6,17.7,21,16,21s-3.4-0.4-4.8-1.2
	c-0.5,0.9-1.3,1.7-2.5,2.1C4.6,23.2,1,24.9,1,31c0,0.6,0.4,1,1,1h28c0.6,0,1-0.4,1-1C31,24.9,27.4,23.2,23.3,21.9z"></path>
</g>
</svg>