<?xml version="1.0" encoding="utf-8"?>
<!-- Generated by IcoMoon.io -->
<!DOCTYPE svg PUBLIC "-//W3C//DTD SVG 1.1//EN" "http://www.w3.org/Graphics/SVG/1.1/DTD/svg11.dtd">
<svg version="1.1" xmlns="http://www.w3.org/2000/svg" xmlns:xlink="http://www.w3.org/1999/xlink" width="32" height="32" viewBox="0 0 32 32">
<path fill="#444444" d="M25.328 11.867v18.101l0.762-0.762h-20.687l0.762 0.762v-18.101h-1.524v18.863h22.211v-18.863h-1.524z"></path>
<path fill="#444444" d="M14.984 17.039v7.758h1.524v-7.758h-1.524z"></path>
<path fill="#444444" d="M10.921 17.039v7.758h1.524v-7.758h-1.524z"></path>
<path fill="#444444" d="M19.048 17.039v7.758h1.524v-7.758h-1.524z"></path>
<path fill="#444444" d="M11.336 6.696v-5.172l-0.762 0.762h10.343l-0.762-0.762v5.172h1.524v-5.934h-11.867v5.934h1.524z"></path>
<path fill="#444444" d="M1.524 7.457h28.444l-0.762-0.762v5.172l0.762-0.762h-28.444l0.762 0.762v-5.172l-0.762 0.762zM1.524 5.934h-0.762v6.696h29.968v-6.696h-29.206z"></path>
</svg>
