<?xml version="1.0" encoding="utf-8"?>
<!-- Generated by IcoMoon.io -->
<!DOCTYPE svg PUBLIC "-//W3C//DTD SVG 1.1//EN" "http://www.w3.org/Graphics/SVG/1.1/DTD/svg11.dtd">
<svg version="1.1" xmlns="http://www.w3.org/2000/svg" xmlns:xlink="http://www.w3.org/1999/xlink" width="32" height="32" viewBox="0 0 32 32">
<path fill="#444444" d="M18.993 15.238h-5.541c-0.831 0-1.385 0.554-1.385 1.385v12.468c0 0.831 0.554 1.385 1.385 1.385h5.541c0.831 0 1.385-0.554 1.385-1.385v-12.468c0-0.831-0.554-1.385-1.385-1.385v0z"></path>
<path fill="#444444" d="M7.911 20.779h-5.541c-0.831 0-1.385 0.554-1.385 1.385v6.926c0 0.831 0.554 1.385 1.385 1.385h5.541c0.831 0 1.385-0.554 1.385-1.385v-6.926c0-0.831-0.554-1.385-1.385-1.385v0z"></path>
<path fill="#444444" d="M30.075 9.697h-5.541c-0.831 0-1.385 0.554-1.385 1.385v18.009c0 0.831 0.554 1.385 1.385 1.385h5.541c0.831 0 1.385-0.554 1.385-1.385v-18.009c0-0.831-0.554-1.385-1.385-1.385v0z"></path>
<path fill="#444444" d="M6.526 13.853c0.416 0 0.693-0.139 0.97-0.416l4.571-4.571 3.186 3.186c0.554 0.554 1.385 0.554 1.939 0l7.342-7.342v2.216c0 0.831 0.554 1.385 1.385 1.385s1.385-0.554 1.385-1.385v-5.541c0-0.139 0-0.416-0.139-0.554-0.139-0.277-0.416-0.554-0.693-0.693-0.139-0.139-0.416-0.139-0.554-0.139h-5.541c-0.831 0-1.385 0.554-1.385 1.385s0.554 1.385 1.385 1.385h2.216l-6.372 6.372-3.186-3.186c-0.554-0.554-1.385-0.554-1.939 0l-5.541 5.541c-0.554 0.554-0.554 1.385 0 1.939 0.277 0.277 0.554 0.416 0.97 0.416v0z"></path>
</svg>
