<?xml version="1.0" encoding="utf-8"?>
<!-- Generated by IcoMoon.io -->
<!DOCTYPE svg PUBLIC "-//W3C//DTD SVG 1.1//EN" "http://www.w3.org/Graphics/SVG/1.1/DTD/svg11.dtd">
<svg version="1.1" xmlns="http://www.w3.org/2000/svg" xmlns:xlink="http://www.w3.org/1999/xlink" width="34" height="32" viewBox="0 0 34 32">
<path fill="#444444" d="M32.333 18.831h-10.568v4.97l0.77-0.77h-11.197l0.77 0.77v-4.97h-10.568v1.54h9.798l-0.77-0.77v4.97h12.737v-4.97l-0.77 0.77h9.798v-1.54z"></path>
<path fill="#444444" d="M16.171 0v14.001h1.54v-14.001h-1.54z"></path>
<path fill="#444444" d="M26.734 7.771h1.4l-0.731-0.527 4.199 12.601-0.040-0.243v11.201l0.77-0.77h-30.793l0.77 0.77v-11.201l-0.039 0.243 4.199-12.601-0.731 0.527h1.4v-1.54h-1.955l-4.375 13.127-0.039 0.243v11.971h32.333v-11.971l-0.039-0.243-4.375-13.127h-1.955v1.54z"></path>
<path fill="#444444" d="M20.591 9.256l-4.199 4.2h1.089l-4.199-4.2-1.089 1.089 4.744 4.745 4.744-4.745-1.089-1.089z"></path>
</svg>
