<?xml version="1.0" encoding="utf-8"?>
<!-- Generated by IcoMoon.io -->
<!DOCTYPE svg PUBLIC "-//W3C//DTD SVG 1.1//EN" "http://www.w3.org/Graphics/SVG/1.1/DTD/svg11.dtd">
<svg version="1.1" xmlns="http://www.w3.org/2000/svg" xmlns:xlink="http://www.w3.org/1999/xlink" width="30" height="32" viewBox="0 0 30 32">
<path fill="#444444" d="M4.42 8.043c2 0 3.622-1.622 3.622-3.623s-1.622-3.623-3.622-3.623c-2.001 0-3.622 1.622-3.622 3.623s1.622 3.623 3.622 3.623v0zM4.42 6.448c-1.119 0-2.027-0.908-2.027-2.027s0.907-2.027 2.027-2.027c1.119 0 2.027 0.908 2.027 2.027s-0.907 2.027-2.027 2.027v0z"></path>
<path fill="#444444" d="M4.42 19.343c2 0 3.622-1.622 3.622-3.623s-1.622-3.623-3.622-3.623c-2.001 0-3.622 1.622-3.622 3.623s1.622 3.623 3.622 3.623v0zM4.42 17.748c-1.119 0-2.027-0.908-2.027-2.027s0.907-2.027 2.027-2.027c1.119 0 2.027 0.908 2.027 2.027s-0.907 2.027-2.027 2.027v0z"></path>
<path fill="#444444" d="M4.42 30.643c2 0 3.622-1.622 3.622-3.623s-1.622-3.623-3.622-3.623c-2.001 0-3.622 1.622-3.622 3.623s1.622 3.623 3.622 3.623v0zM4.42 29.048c-1.119 0-2.027-0.908-2.027-2.027s0.907-2.027 2.027-2.027c1.119 0 2.027 0.908 2.027 2.027s-0.907 2.027-2.027 2.027v0z"></path>
<path fill="#444444" d="M12.893 4.719h16.946v-1.596h-16.946v1.596z"></path>
<path fill="#444444" d="M12.893 16.346h16.946v-1.596h-16.946v1.596z"></path>
<path fill="#444444" d="M12.893 25.649h16.946v-1.596h-16.946v1.596z"></path>
</svg>
