<?xml version="1.0" encoding="utf-8"?>
<!-- Generated by IcoMoon.io -->
<!DOCTYPE svg PUBLIC "-//W3C//DTD SVG 1.1//EN" "http://www.w3.org/Graphics/SVG/1.1/DTD/svg11.dtd">
<svg version="1.1" xmlns="http://www.w3.org/2000/svg" xmlns:xlink="http://www.w3.org/1999/xlink" width="29" height="32" viewBox="0 0 29 32">
<path fill="#444444" d="M7.604 5.333h13.333c0.8 0 1.333-0.533 1.333-1.333v-2.667c0-0.8-0.533-1.333-1.333-1.333h-13.333c-0.8 0-1.333 0.533-1.333 1.333v2.667c0 0.8 0.533 1.333 1.333 1.333v0z"></path>
<path fill="#444444" d="M27.071 17.6l-7.467-6.267v-2c0-0.8-0.533-1.333-1.333-1.333h-8c-0.8 0-1.333 0.533-1.333 1.333v2l-7.467 6.267c-0.4 0.267-0.533 0.667-0.533 1.067v12c0 0.8 0.533 1.333 1.333 1.333h24c0.8 0 1.333-0.533 1.333-1.333v-12c0-0.4-0.133-0.8-0.533-1.067v0zM19.604 22.667h-4v4h-2.667v-4h-4v-2.667h4v-4h2.667v4h4v2.667z"></path>
</svg>
