<?xml version="1.0" encoding="utf-8"?>
<!-- Generated by IcoMoon.io -->
<!DOCTYPE svg PUBLIC "-//W3C//DTD SVG 1.1//EN" "http://www.w3.org/Graphics/SVG/1.1/DTD/svg11.dtd">
<svg version="1.1" xmlns="http://www.w3.org/2000/svg" xmlns:xlink="http://www.w3.org/1999/xlink" width="32" height="32" viewBox="0 0 32 32">
<path fill="#444444" d="M12.724 20.103l-5.364 4.158c-0.779 0.77-1.234 1.772-1.234 2.748v4.024h1.524v-4.024c0-0.553 0.283-1.174 0.716-1.608l5.292-4.095-0.934-1.204z"></path>
<path fill="#444444" d="M18.893 21.308l5.364 4.158c0.484 0.387 0.778 0.975 0.778 1.544v4.024h1.524v-4.024c0-1.041-0.511-2.063-1.359-2.741l-5.374-4.166-0.934 1.204z"></path>
<path fill="#444444" d="M16.276 20.883c-2.53 0-4.602-2.073-4.602-4.604v-2.683c0-2.53 2.073-4.604 4.602-4.604s4.602 2.073 4.602 4.604v2.683c0 2.53-2.073 4.604-4.602 4.604v0zM16.276 22.406c3.371 0 6.126-2.756 6.126-6.127v-2.683c0-3.372-2.755-6.127-6.126-6.127s-6.126 2.756-6.126 6.127v2.683c0 3.372 2.755 6.127 6.126 6.127v0z"></path>
<path fill="#444444" d="M1.524 2.286h29.504l-0.762-0.762v29.51l0.762-0.762h-29.504l0.762 0.762v-29.51l-0.762 0.762zM1.524 0.762h-0.762v31.034h31.028v-31.034h-30.266z"></path>
</svg>
