<?xml version="1.0" encoding="utf-8"?>
<!-- Generated by IcoMoon.io -->
<!DOCTYPE svg PUBLIC "-//W3C//DTD SVG 1.1//EN" "http://www.w3.org/Graphics/SVG/1.1/DTD/svg11.dtd">
<svg version="1.1" xmlns="http://www.w3.org/2000/svg" xmlns:xlink="http://www.w3.org/1999/xlink" width="32" height="32" viewBox="0 0 32 32">
<path fill="#444444" d="M13.064 20.129l-5.364 4.158c-0.536 0.537-0.939 1.341-0.939 2.146v4.024z"></path>
<path fill="#444444" d="M19.233 20.129l5.364 4.158c0.671 0.537 1.073 1.341 1.073 2.146v4.024z"></path>
<path fill="#444444" d="M16.149 21.068v0c-2.95 0-5.364-2.414-5.364-5.366v-2.683c0-2.951 2.414-5.365 5.364-5.365v0c2.95 0 5.364 2.414 5.364 5.365v2.683c0 2.951-2.414 5.366-5.364 5.366v0z"></path>
<path fill="#444444" d="M1.397 0.947h29.504v29.51h-29.504v-29.51z"></path>
</svg>
