<?xml version="1.0" encoding="utf-8"?>
<!-- Generated by IcoMoon.io -->
<!DOCTYPE svg PUBLIC "-//W3C//DTD SVG 1.1//EN" "http://www.w3.org/Graphics/SVG/1.1/DTD/svg11.dtd">
<svg version="1.1" xmlns="http://www.w3.org/2000/svg" xmlns:xlink="http://www.w3.org/1999/xlink" width="32" height="32" viewBox="0 0 32 32">
<path fill="#444444" d="M17.391 16.696v5.565l0.696-0.696h-6.957v1.391h7.652v-6.261h-1.391z"></path>
<path fill="#444444" d="M0.987 1.957l9.739 6.957-0.291-0.566v20.87l1.1-0.566-9.739-6.957 0.291 0.566v-20.87l-0.696 0.696h16.696l-0.696-0.696v11.13h1.391v-11.826h-18.087v21.923l11.13 7.95v-22.579l-10.030-7.165-0.809 1.132z"></path>
<path fill="#444444" d="M15.304 13.217h15.304v-1.391h-15.304v1.391z"></path>
<path fill="#444444" d="M24.552 7.448l5.565 5.565v-0.984l-5.565 5.565 0.984 0.984 6.057-6.057-6.057-6.057-0.984 0.984z"></path>
</svg>
