<?xml version="1.0" encoding="utf-8"?>
<!-- Generated by IcoMoon.io -->
<!DOCTYPE svg PUBLIC "-//W3C//DTD SVG 1.1//EN" "http://www.w3.org/Graphics/SVG/1.1/DTD/svg11.dtd">
<svg version="1.1" xmlns="http://www.w3.org/2000/svg" xmlns:xlink="http://www.w3.org/1999/xlink" width="34" height="32" viewBox="0 0 34 32">
<path fill="#444444" d="M32.254 2.775h-6.244v-2.081c0-0.416-0.277-0.694-0.694-0.694s-0.694 0.278-0.694 0.694v2.081h-6.937v-2.081c0-0.416-0.277-0.694-0.694-0.694s-0.694 0.278-0.694 0.694v2.081h-6.937v-2.081c0-0.416-0.277-0.694-0.694-0.694s-0.694 0.278-0.694 0.694v2.081h-6.244c-0.416 0-0.694 0.277-0.694 0.694v4.856c0 0.416 0.278 0.694 0.694 0.694h30.524c0.416 0 0.694-0.277 0.694-0.694v-4.856c0-0.416-0.278-0.694-0.694-0.694v0z"></path>
<path fill="#444444" d="M32.254 10.406h-30.524c-0.416 0-0.694 0.277-0.694 0.694v20.118c0 0.416 0.278 0.694 0.694 0.694h30.524c0.416 0 0.694-0.277 0.694-0.694v-20.118c0-0.416-0.278-0.694-0.694-0.694v0zM12.136 27.055c0 0.416-0.277 0.694-0.694 0.694h-4.162c-0.416 0-0.694-0.277-0.694-0.694v-4.162c0-0.416 0.277-0.694 0.694-0.694h4.162c0.416 0 0.694 0.277 0.694 0.694v4.162zM12.136 19.424c0 0.416-0.277 0.694-0.694 0.694h-4.162c-0.416 0-0.694-0.277-0.694-0.694v-4.162c0-0.416 0.277-0.694 0.694-0.694h4.162c0.416 0 0.694 0.277 0.694 0.694v4.162zM19.767 27.055c0 0.416-0.277 0.694-0.694 0.694h-4.162c-0.416 0-0.694-0.277-0.694-0.694v-4.162c0-0.416 0.277-0.694 0.694-0.694h4.162c0.416 0 0.694 0.277 0.694 0.694v4.162zM26.858 27.055c0 0.416-0.277 0.694-0.694 0.694h-4.162c-0.416 0-0.694-0.277-0.694-0.694v-4.162c0-0.416 0.277-0.694 0.694-0.694h4.162c0.416 0 0.694 0.277 0.694 0.694v4.162zM19.767 19.424c0 0.416-0.277 0.694-0.694 0.694h-4.162c-0.416 0-0.694-0.277-0.694-0.694v-4.162c0-0.416 0.277-0.694 0.694-0.694h4.162c0.416 0 0.694 0.277 0.694 0.694v4.162zM27.398 19.424c0 0.416-0.277 0.694-0.694 0.694h-4.162c-0.416 0-0.694-0.277-0.694-0.694v-4.162c0-0.416 0.277-0.694 0.694-0.694h4.162c0.416 0 0.694 0.277 0.694 0.694v4.162z"></path>
</svg>
