<?xml version="1.0" encoding="utf-8"?>
<!-- Generated by IcoMoon.io -->
<!DOCTYPE svg PUBLIC "-//W3C//DTD SVG 1.1//EN" "http://www.w3.org/Graphics/SVG/1.1/DTD/svg11.dtd">
<svg version="1.1" xmlns="http://www.w3.org/2000/svg" xmlns:xlink="http://www.w3.org/1999/xlink" width="32" height="32" viewBox="0 0 32 32">
<path fill="#444444" d="M11.284 6.657v-5.203l-0.727 0.727h10.403l-0.727-0.727v5.203h1.455v-5.93h-11.858v5.93h1.455z"></path>
<path fill="#444444" d="M1.455 7.385h28.608l-0.727-0.727v23.412l0.727-0.727h-28.608l0.727 0.727v-23.412l-0.727 0.727zM1.455 5.93h-0.727v24.867h30.063v-24.867h-29.336z"></path>
<path fill="#444444" d="M22.261 15.035h-3.901l0.727 0.727v-4.629h-6.656v4.629l0.727-0.727h-4.628v6.657h4.628l-0.727-0.727v4.629h6.656v-4.629l-0.727 0.727h4.628v-6.657h-0.727zM22.261 16.489l-0.727-0.727v5.203l0.727-0.727h-4.628v4.629l0.727-0.727h-5.202l0.727 0.727v-4.629h-4.628l0.727 0.727v-5.203l-0.727 0.727h4.628v-4.629l-0.727 0.727h5.202l-0.727-0.727v4.629h4.628z"></path>
</svg>
