<?xml version="1.0" encoding="utf-8"?>
<!-- Generated by IcoMoon.io -->
<!DOCTYPE svg PUBLIC "-//W3C//DTD SVG 1.1//EN" "http://www.w3.org/Graphics/SVG/1.1/DTD/svg11.dtd">
<svg version="1.1" xmlns="http://www.w3.org/2000/svg" xmlns:xlink="http://www.w3.org/1999/xlink" width="34" height="32" viewBox="0 0 34 32">
<path fill="#444444" d="M31.561 9.789v20.977l0.802-0.802h-30.759l0.802 0.802v-20.977h-1.604v21.779h32.363v-21.779h-1.604z"></path>
<path fill="#444444" d="M1.604 3.599h30.759l-0.802-0.802v6.992l0.802-0.802h-30.759l0.802 0.802v-6.992l-0.802 0.802zM1.604 1.995h-0.802v8.596h32.363v-8.596h-31.561z"></path>
<path fill="#444444" d="M14.169 0v5.594h1.604v-5.594h-1.604z"></path>
<path fill="#444444" d="M6.149 0v5.594h1.604v-5.594h-1.604z"></path>
<path fill="#444444" d="M22.189 0v5.594h1.604v-5.594h-1.604z"></path>
<path fill="#444444" d="M9.426 21.544l4.762 4.763 10.354-10.357-1.134-1.134-9.787 9.789h1.134l-4.194-4.195-1.134 1.134z"></path>
</svg>
