<?xml version="1.0" encoding="UTF-8" standalone="no"?>
<svg width="20px" height="18px" viewBox="0 0 20 18" version="1.1" xmlns="http://www.w3.org/2000/svg" xmlns:xlink="http://www.w3.org/1999/xlink" xmlns:sketch="http://www.bohemiancoding.com/sketch/ns">
    <!-- Generator: Sketch 3.3.3 (12081) - http://www.bohemiancoding.com/sketch -->
    <title>Group Copy 27</title>
    <desc>Created with Sketch.</desc>
    <defs></defs>
    <g id="Page-1" stroke="none" stroke-width="1" fill="none" fill-rule="evenodd" sketch:type="MSPage">
        <g id="Patient-Timeline" sketch:type="MSArtboardGroup" transform="translate(-334.000000, -941.000000)" fill="#FFFFFF">
            <g id="Blue-bar" sketch:type="MSLayerGroup" transform="translate(-1.000000, 919.000000)">
                <g id="Group-Copy-27" transform="translate(335.000000, 22.000000)" sketch:type="MSShapeGroup">
                    <path d="M17.2608696,6.18535469 C15.7347826,6.18535469 14.5217391,7.46224256 14.5217391,9.06864989 C14.5217391,10.6750572 15.7347826,11.9519451 17.2608696,11.9519451 C18.7869565,11.9519451 20,10.6750572 20,9.06864989 C20,7.46224256 18.7869565,6.18535469 17.2608696,6.18535469 L17.2608696,6.18535469 Z" id="Shape-Copy-5"></path>
                    <path d="M0.517017267,1.13861353 C0.497121573,1.29218742 0.46849584,1.56307784 0.440224998,1.92923145 C0.319860129,3.48815326 0.328314282,5.15826903 0.554967079,6.74207007 C1.08904447,10.4740881 2.73169737,12.8601974 5.84765625,12.8601974 L5.84765625,11.1101974 C3.84178896,11.1101974 2.71332369,9.47099443 2.28731808,6.49415875 C2.08153911,5.05621956 2.0736918,3.5059855 2.18503195,2.06394858 C2.21086397,1.72938167 2.2363411,1.48828703 2.25251398,1.36344936 L0.517017267,1.13861353 L0.517017267,1.13861353 Z" id="Shape"></path>
                    <path d="M9.83563359,1.36344936 C9.85180647,1.48828703 9.8772836,1.72938167 9.90311562,2.06394858 C10.0144558,3.5059855 10.0066085,5.05621956 9.8008295,6.49415875 C9.37482388,9.47099443 8.24635861,11.1101974 6.24049132,11.1101974 L6.24049132,12.8601974 C9.3564502,12.8601974 10.9991031,10.4740881 11.5331805,6.74207007 C11.7598333,5.15826903 11.7682874,3.48815326 11.6479226,1.92923145 C11.6196517,1.56307784 11.591026,1.29218742 11.5711303,1.13861353 L9.83563359,1.36344936 L9.83563359,1.36344936 Z" id="Shape"></path>
                    <path d="M0.73828125,1.75 L4.73828125,1.75 L4.73828125,0 L0.73828125,0 L0.73828125,1.75 L0.73828125,1.75 Z" id="Shape"></path>
                    <path d="M7.73828125,1.75 L11.7382812,1.75 L11.7382812,0 L7.73828125,0 L7.73828125,1.75 L7.73828125,1.75 Z" id="Shape"></path>
                    <path d="M5.33961209,11.8342095 C5.33084097,11.8842771 5.32020342,11.9608806 5.31036306,12.061127 C5.22573598,12.923245 5.32692654,13.9017425 5.7674792,14.8529336 C6.64162689,16.7402937 8.5900889,17.8601974 11.7090035,17.8601974 L11.7090035,16.1101974 C9.24240429,16.1101974 7.92865164,15.3551011 7.35542762,14.1174611 C7.06565133,13.4918092 6.99520454,12.8105994 7.05199223,12.2320885 C7.05738357,12.1771655 7.06197774,12.1440818 7.06336109,12.1361853 L5.33961209,11.8342095 L5.33961209,11.8342095 Z" id="Shape"></path>
                    <path d="M15.9686794,12.1146156 C15.9705905,12.1255243 15.9756163,12.1617165 15.9813254,12.2198769 C16.0401016,12.8186455 15.9674589,13.5210901 15.6669128,14.1699949 C15.0721943,15.4540434 13.7131052,16.2351974 11.1999121,16.2351974 L11.1999121,17.7351974 C14.2722327,17.7351974 16.1753584,16.6413513 17.0280115,14.8003999 C17.4577944,13.8724616 17.556789,12.9151989 17.4741504,12.0733385 C17.4646279,11.9763295 17.454422,11.9028346 17.4461786,11.8557792 L15.9686794,12.1146156 L15.9686794,12.1146156 Z" id="Shape"></path>
                </g>
            </g>
        </g>
    </g>
</svg>