<?xml version="1.0" encoding="utf-8"?>
<!-- Generated by IcoMoon.io -->
<!DOCTYPE svg PUBLIC "-//W3C//DTD SVG 1.1//EN" "http://www.w3.org/Graphics/SVG/1.1/DTD/svg11.dtd">
<svg version="1.1" xmlns="http://www.w3.org/2000/svg" xmlns:xlink="http://www.w3.org/1999/xlink" width="35" height="32" viewBox="0 0 35 32">
<path fill="#444444" d="M31.593 27.826h-27.826c-0.835 0-1.391 0.557-1.391 1.391v1.391c0 0.835 0.557 1.391 1.391 1.391h27.826c0.835 0 1.391-0.557 1.391-1.391v-1.391c0-0.835-0.557-1.391-1.391-1.391v0z"></path>
<path fill="#444444" d="M32.984 5.565h-8.348v-4.174c0-0.835-0.557-1.391-1.391-1.391h-11.13c-0.835 0-1.391 0.557-1.391 1.391v4.174h-8.348c-0.835 0-1.391 0.557-1.391 1.391v16.696c0 0.835 0.557 1.391 1.391 1.391h30.609c0.835 0 1.391-0.557 1.391-1.391v-16.696c0-0.835-0.557-1.391-1.391-1.391v0zM21.854 16.696h-2.783v2.783h-2.783v-2.783h-2.783v-2.783h2.783v-2.783h2.783v2.783h2.783v2.783zM21.854 5.565h-8.348v-2.783h8.348v2.783z"></path>
</svg>
