<?xml version="1.0" encoding="utf-8"?>
<!-- Generated by IcoMoon.io -->
<!DOCTYPE svg PUBLIC "-//W3C//DTD SVG 1.1//EN" "http://www.w3.org/Graphics/SVG/1.1/DTD/svg11.dtd">
<svg version="1.1" xmlns="http://www.w3.org/2000/svg" xmlns:xlink="http://www.w3.org/1999/xlink" width="32" height="32" viewBox="0 0 32 32">
<path fill="#444444" d="M16 0c-8.8 0-16 7.2-16 16s7.2 16 16 16c8.8 0 16-7.2 16-16s-7.2-16-16-16v0 0zM17.333 22.667c0 0.8-0.533 1.333-1.333 1.333s-1.333-0.533-1.333-1.333v-1.333c0-0.8 0.533-1.333 1.333-1.333s1.333 0.533 1.333 1.333v1.333zM17.333 16c0 0.8-0.533 1.333-1.333 1.333s-1.333-0.533-1.333-1.333v-6.667c0-0.8 0.533-1.333 1.333-1.333s1.333 0.533 1.333 1.333v6.667z"></path>
</svg>
