<?xml version="1.0" encoding="UTF-8" standalone="no"?>
<svg width="21px" height="20px" viewBox="0 0 21 20" version="1.1" xmlns="http://www.w3.org/2000/svg" xmlns:xlink="http://www.w3.org/1999/xlink" xmlns:sketch="http://www.bohemiancoding.com/sketch/ns">
    <!-- Generator: Sketch 3.3.3 (12081) - http://www.bohemiancoding.com/sketch -->
    <title>Group Copy 8</title>
    <desc>Created with Sketch.</desc>
    <defs></defs>
    <g id="Page-1" stroke="none" stroke-width="1" fill="none" fill-rule="evenodd" sketch:type="MSPage">
        <g id="Timeline-Filter-" sketch:type="MSArtboardGroup" transform="translate(-561.000000, -940.000000)" fill="#FFFFFF">
            <g id="Bottom-bar" sketch:type="MSLayerGroup" transform="translate(-1.000000, 919.000000)">
                <g id="Group-Copy-8" transform="translate(562.000000, 21.000000)" sketch:type="MSShapeGroup">
                    <path d="M12.6521739,15.6956522 C12.4347826,15.9565217 12.0869565,16.0869565 11.7391304,16.0869565 L9.56521739,16.0869565 C8.82608696,16.0869565 8.26086957,15.5217391 8.26086957,14.7826087 L8.26086957,12.6086957 C8.26086957,12.2608696 8.39130435,11.9130435 8.65217391,11.6956522 L16.5217391,3.82608696 L16.5217391,0.434782609 C16.5217391,0.173913043 16.3478261,0 16.0869565,0 L0.434782609,0 C0.173913043,0 0,0.173913043 0,0.434782609 L0,19.5652174 C0,19.826087 0.173913043,20 0.434782609,20 L16.0869565,20 C16.3478261,20 16.5217391,19.826087 16.5217391,19.5652174 L16.5217391,11.826087 L12.6521739,15.6956522 L12.6521739,15.6956522 Z" id="Shape"></path>
                    <path d="M9.17391304,12.3913043 C9.17391304,12.4782609 9.13043478,12.5217391 9.13043478,12.6086957 L9.13043478,14.7826087 C9.13043478,15.0434783 9.30434783,15.2173913 9.56521739,15.2173913 L11.7391304,15.2173913 C11.826087,15.2173913 11.8695652,15.173913 11.9565217,15.173913 L9.17391304,12.3913043 L9.17391304,12.3913043 Z" id="Shape"></path>
                    <path d="M20.3043478,6.2173913 L18.1304348,4.04347826 C17.9565217,3.86956522 17.6956522,3.86956522 17.5217391,4.04347826 L9.7826087,11.7826087 L12.5652174,14.5652174 L20.3043478,6.82608696 C20.4782609,6.65217391 20.4782609,6.39130435 20.3043478,6.2173913 L20.3043478,6.2173913 Z" id="Shape"></path>
                </g>
            </g>
        </g>
    </g>
</svg>